<svg width="256" height="256" viewBox="0 0 256 256" fill="none" xmlns="http://www.w3.org/2000/svg">
<g clip-path="url(#clip0_1191_17768)">
<rect width="256" height="256" fill="black"/>
<path d="M150.213 183.246C158.141 183.246 165.591 187.045 170.252 193.459L187.2 216.792C188.1 218.022 187.824 219.747 186.595 220.637L164.325 236.823C163.095 237.713 161.38 237.437 160.481 236.208L132.459 197.634C130.266 194.615 125.787 194.606 123.576 197.597L95.5266 236.208C94.6366 237.437 92.9112 237.713 91.6817 236.823L69.403 220.637C68.1738 219.747 67.9083 218.022 68.7981 216.792L85.7453 193.459C90.4065 187.045 97.8571 183.246 105.785 183.246H150.213Z" fill="white"/>
<path d="M21.8008 100.922C22.2689 99.4818 23.8291 98.6926 25.2695 99.1604L52.6951 108.07C60.2373 110.52 66.1466 116.429 68.5965 123.971C73.1718 138.055 77.7637 152.135 82.342 166.217C84.7917 173.759 83.4798 182.017 78.8187 188.431L61.8618 211.764C60.9717 213.003 59.2471 213.269 58.0177 212.379H58.0266L35.748 196.203C34.5187 195.313 34.2528 193.588 35.1422 192.358L63.1646 153.783C65.3573 150.764 63.981 146.506 60.4576 145.323L15.0661 130.578C13.6256 130.11 12.8275 128.559 13.2955 127.109L21.8008 100.922Z" fill="white"/>
<path d="M230.702 99.1523C232.152 98.6753 233.703 99.4735 234.171 100.914H234.18L242.695 127.092C243.163 128.533 242.373 130.083 240.924 130.56L195.578 145.297C192.094 146.431 190.688 150.539 192.68 153.554L192.807 153.729L220.856 192.34C221.746 193.569 221.48 195.295 220.251 196.185L197.973 212.37C196.743 213.26 195.027 212.985 194.128 211.755L177.172 188.422C172.511 182.008 171.198 173.75 173.648 166.208L187.374 123.953L187.377 123.956C189.828 116.417 195.746 110.511 203.277 108.062L230.702 99.1523Z" fill="white"/>
<path d="M162.555 18.6631C164.069 18.6635 165.299 19.8929 165.308 21.4158V69.0923C165.308 72.8268 168.923 75.4599 172.474 74.3405L217.865 59.595C219.306 59.1273 220.866 59.9171 221.334 61.3575L229.84 87.5448C230.308 88.9851 229.509 90.5353 228.069 91.0126L200.643 99.922C193.101 102.372 184.843 101.069 178.429 96.4077L141.894 69.8495C135.84 65.1672 132.276 57.9345 132.276 50.2545V21.4158C132.276 19.8926 133.505 18.6631 135.028 18.6631H162.555Z" fill="white"/>
<path d="M120.971 18.672C122.485 18.6721 123.715 19.9108 123.724 21.4247V50.2634C123.724 58.1911 119.925 65.6416 113.511 70.3029L77.5705 96.3988C71.1568 101.06 62.8987 102.363 55.3564 99.9131L27.9308 91.0036C26.481 90.5356 25.6913 88.9755 26.1593 87.535V87.5448L34.6655 61.3575C35.1335 59.917 36.6844 59.127 38.1342 59.595L83.48 74.3315C87.0309 75.4874 90.655 72.8632 90.6825 69.138V21.4247C90.6825 19.9108 91.9121 18.6721 93.4352 18.672H120.971Z" fill="white"/>
</g>
<defs>
<clipPath id="clip0_1191_17768">
<rect width="256" height="256" fill="white"/>
</clipPath>
</defs>
</svg>
