<svg version="1.1" id="Layer_1" xmlns="http://www.w3.org/2000/svg" xmlns:xlink="http://www.w3.org/1999/xlink" x="0px" y="0px"
	 width="100%" viewBox="0 0 721 721" enable-background="new 0 0 721 721" xml:space="preserve">
<path fill="#FF0000" opacity="1.000000" stroke="none" 
	d="
M417.000000,722.000000 
	C278.000000,722.000000 139.500000,722.000000 1.000000,722.000000 
	C1.000000,481.666656 1.000000,241.333328 1.000000,1.000000 
	C241.333328,1.000000 481.666656,1.000000 722.000000,1.000000 
	C722.000000,241.333328 722.000000,481.666656 722.000000,722.000000 
	C620.500000,722.000000 519.000000,722.000000 417.000000,722.000000 
M110.636230,430.927979 
	C112.020630,435.306396 113.405029,439.684814 114.870415,444.835052 
	C116.551155,449.234283 118.231895,453.633484 119.959938,458.784119 
	C121.950935,463.200287 123.941933,467.616425 126.050957,472.742615 
	C127.989571,476.513855 129.928177,480.285095 132.033142,484.752014 
	C134.384171,488.826447 136.735199,492.900879 139.336624,497.609619 
	C142.205475,501.751373 145.074326,505.893097 148.078262,510.715424 
	C151.385910,515.143616 154.693558,519.571838 158.321472,524.586670 
	C162.546219,529.391418 166.770981,534.196228 171.320709,539.581055 
	C177.554886,545.568054 183.612457,551.752869 190.055740,557.505676 
	C211.078262,576.275574 234.735886,590.854797 260.670502,601.902954 
	C288.683502,613.836548 318.018494,620.149536 348.225311,621.736816 
	C362.914520,622.508667 377.790649,621.245178 392.493134,619.917053 
	C420.768585,617.362854 447.471466,608.839233 473.145966,596.928040 
	C489.682709,589.256165 505.100464,579.630127 519.441345,568.509705 
	C529.503418,560.707153 538.508850,551.541992 548.315247,542.408752 
	C551.857300,538.594238 555.399292,534.779724 559.291809,530.398499 
	C561.855347,527.263916 564.418823,524.129272 567.490051,520.566406 
	C569.682678,517.390930 571.875305,514.215515 574.628540,510.673523 
	C577.038818,507.103546 579.449158,503.533539 582.059570,499.293274 
	C584.328613,495.519714 586.597656,491.746155 589.231201,487.374542 
	C591.139832,483.576691 593.048462,479.778870 595.428284,475.473297 
	C597.868225,469.964996 600.308167,464.456696 602.951355,458.226654 
	C604.957581,452.482483 606.963745,446.738312 609.192566,440.280212 
	C610.751099,434.848572 612.309631,429.416931 614.065674,423.223938 
	C615.018982,418.480011 615.972290,413.736084 617.234924,408.264465 
	C618.131592,401.506714 619.028320,394.748993 620.105225,387.177734 
	C620.461121,377.752014 620.817017,368.326263 621.415894,358.108704 
	C620.164062,344.663544 618.912231,331.218414 617.588379,317.012207 
	C616.476318,311.991791 615.364258,306.971344 614.197510,301.130890 
	C612.559387,295.386353 610.921204,289.641815 609.160706,283.125092 
	C608.794922,282.234985 608.420105,281.348480 608.064758,280.454224 
	C604.032715,270.306061 600.003723,260.156677 595.918457,249.285706 
	C592.333740,243.089127 588.748962,236.892548 585.190186,229.983383 
	C581.591553,224.283600 577.992920,218.583817 574.137268,212.226105 
	C567.541809,204.107300 560.946411,195.988480 554.086487,187.227264 
	C552.534302,185.772491 550.954407,184.346039 549.434937,182.857849 
	C543.907410,177.444153 538.400085,172.009811 532.511536,165.978592 
	C524.337402,159.710861 516.163269,153.443130 507.502686,146.654587 
	C499.999023,142.157333 492.495392,137.660080 484.445312,132.688080 
	C475.286255,128.492447 466.127167,124.296814 456.360992,119.668640 
	C449.906036,117.491890 443.451050,115.315140 436.329590,112.792793 
	C431.224060,111.518669 426.118500,110.244545 420.470459,108.542526 
	C418.367493,108.247391 416.265320,107.946564 414.161438,107.658035 
	C400.385834,105.768837 386.662415,103.121346 372.822235,102.164909 
	C349.317505,100.540588 326.017731,103.134605 302.238861,108.160973 
	C297.156830,109.718239 292.074799,111.275505 286.190033,112.829697 
	C280.798340,114.663696 275.406677,116.497696 269.316437,118.448990 
	C261.881622,121.730171 254.446777,125.011360 246.345734,128.446823 
	C233.161240,136.601349 219.976746,144.755875 206.138702,153.070175 
	C200.110931,158.102905 194.083176,163.135651 187.435715,168.398300 
	C181.362823,174.495651 175.289932,180.593018 168.673737,186.987762 
	C163.863724,192.877106 159.053711,198.766464 153.748703,205.046722 
	C149.103195,212.004578 144.457687,218.962448 139.248505,226.282593 
	C135.114120,234.096451 130.979736,241.910309 126.291916,250.166794 
	C122.934486,258.439728 119.577057,266.712646 115.878853,275.649719 
	C113.556023,283.760468 111.233192,291.871216 108.451630,300.571777 
	C106.993217,308.712616 105.534813,316.853485 103.766006,325.748199 
	C103.115730,333.481842 102.465454,341.215485 101.492134,349.704163 
	C101.871735,362.113190 102.251343,374.522247 102.492142,387.737946 
	C103.310928,393.160645 104.129707,398.583313 104.897057,404.861389 
	C105.774315,409.304291 106.651573,413.747223 107.656456,419.003845 
	C108.609055,422.709839 109.561653,426.415802 110.636230,430.927979 
z"/>
<path fill="#F10202" opacity="1.000000" stroke="none" 
	d="
M547.986206,542.985352 
	C538.508850,551.541992 529.503418,560.707153 519.441345,568.509705 
	C505.100464,579.630127 489.682709,589.256165 473.145966,596.928040 
	C447.471466,608.839233 420.768585,617.362854 392.493134,619.917053 
	C377.790649,621.245178 362.914520,622.508667 348.225311,621.736816 
	C318.018494,620.149536 288.683502,613.836548 260.670502,601.902954 
	C234.735886,590.854797 211.078262,576.275574 190.055740,557.505676 
	C183.612457,551.752869 177.554886,545.568054 171.615646,539.290283 
	C181.330933,539.754089 190.752502,540.493896 200.171371,541.266479 
	C215.200806,542.499390 230.225372,543.794312 245.261475,544.938721 
	C246.808929,545.056458 248.420670,544.329956 250.316986,544.144043 
	C252.556107,545.279785 254.530869,546.180542 256.398071,547.266296 
	C287.379913,565.281006 321.013733,573.782104 356.618561,574.917358 
	C364.054779,575.154480 371.591278,574.848633 378.963989,573.889404 
	C391.261902,572.289368 403.595703,570.538147 415.677765,567.804443 
	C434.598572,563.523499 452.144440,555.509888 469.300354,546.247559 
	C470.938843,546.995850 472.294312,547.953735 473.622925,547.917786 
	C482.242432,547.684937 490.869659,547.426514 499.468781,546.816345 
	C515.650391,545.668152 531.814697,544.276001 547.986206,542.985352 
z"/>
<path fill="#FFFCFC" opacity="1.000000" stroke="none" 
	d="
M303.004211,108.168221 
	C326.017731,103.134605 349.317505,100.540588 372.822235,102.164909 
	C386.662415,103.121346 400.385834,105.768837 414.161438,107.658035 
	C416.265320,107.946564 418.367493,108.247391 420.596893,109.064545 
	C417.007904,113.298271 413.825592,117.877968 409.472595,120.551575 
	C398.412933,127.344421 385.975098,129.849091 373.065887,131.234009 
	C354.203644,133.257523 336.296783,130.250122 319.193665,122.702057 
	C312.508423,119.751709 305.659210,116.047562 303.004211,108.168221 
z"/>
<path fill="#FFF4F4" opacity="1.000000" stroke="none" 
	d="
M436.996094,113.138382 
	C443.451050,115.315140 449.906036,117.491890 456.611359,120.218056 
	C454.266846,123.497032 451.918243,126.525307 449.033783,128.903717 
	C437.390839,138.504150 423.459137,143.166443 409.161407,147.048264 
	C406.579651,147.749207 404.255280,149.398331 401.378418,150.595001 
	C376.085571,145.827850 351.167297,145.859619 326.034882,149.290039 
	C323.656464,147.962219 321.527222,146.681931 319.221405,146.094269 
	C306.438751,142.836487 294.007324,138.673019 282.918823,131.372131 
	C277.770569,127.982430 271.958435,125.000114 270.014984,118.331688 
	C275.406677,116.497696 280.798340,114.663696 286.640839,113.182640 
	C290.286591,116.828636 293.070221,120.699013 296.745667,123.317642 
	C315.508759,136.685730 337.376770,139.755692 359.546783,140.820679 
	C368.399475,141.245926 377.385315,139.985703 386.245117,138.938828 
	C401.983917,137.079178 416.701691,132.055466 429.489655,122.510872 
	C432.594147,120.193764 434.525360,116.304665 436.996094,113.138382 
z"/>
<path fill="#FFE6E6" opacity="1.000000" stroke="none" 
	d="
M206.792252,152.910416 
	C219.976746,144.755875 233.161240,136.601349 246.750763,128.688385 
	C249.081253,130.941162 250.798645,133.217575 252.967163,134.918961 
	C264.050537,143.614899 276.817596,149.125854 289.830505,154.182220 
	C291.474182,154.820892 292.741882,156.427139 293.887604,157.759033 
	C279.470886,164.323563 265.350342,170.714157 250.908234,176.930145 
	C247.899063,175.504578 245.253021,174.153259 242.516769,173.019760 
	C229.797302,167.750748 217.481827,161.779144 206.792252,152.910416 
z"/>
<path fill="#FF8B8B" opacity="1.000000" stroke="none" 
	d="
M617.660400,317.773254 
	C618.912231,331.218414 620.164062,344.663544 620.943359,358.541748 
	C616.763855,359.778320 613.068665,360.641785 609.347717,361.374176 
	C598.032593,363.601288 586.707458,365.777802 575.315186,367.511841 
	C574.550476,354.361908 573.856873,341.674133 573.567139,328.987030 
	C588.534180,325.249542 603.097290,321.511414 617.660400,317.773254 
z"/>
<path fill="#FF7C7C" opacity="1.000000" stroke="none" 
	d="
M102.630951,386.931274 
	C102.251343,374.522247 101.871735,362.113190 102.076653,349.344055 
	C117.426804,352.320587 132.192429,355.657227 147.039948,359.435913 
	C148.022232,371.580139 148.922638,383.282288 149.471069,395.051025 
	C146.378403,394.900360 143.590714,394.931580 140.905075,394.423431 
	C128.131805,392.006531 115.386314,389.442749 102.630951,386.931274 
z"/>
<path fill="#FFF8F8" opacity="1.000000" stroke="none" 
	d="
M436.662842,112.965591 
	C434.525360,116.304665 432.594147,120.193764 429.489655,122.510872 
	C416.701691,132.055466 401.983917,137.079178 386.245117,138.938828 
	C377.385315,139.985703 368.399475,141.245926 359.546783,140.820679 
	C337.376770,139.755692 315.508759,136.685730 296.745667,123.317642 
	C293.070221,120.699013 290.286591,116.828636 287.042206,113.184181 
	C292.074799,111.275505 297.156830,109.718239 302.621521,108.164597 
	C305.659210,116.047562 312.508423,119.751709 319.193665,122.702057 
	C336.296783,130.250122 354.203644,133.257523 373.065887,131.234009 
	C385.975098,129.849091 398.412933,127.344421 409.472595,120.551575 
	C413.825592,117.877968 417.007904,113.298271 420.868164,109.278488 
	C426.118500,110.244545 431.224060,111.518669 436.662842,112.965591 
z"/>
<path fill="#FFABAB" opacity="1.000000" stroke="none" 
	d="
M595.973877,250.007629 
	C600.003723,260.156677 604.032715,270.306061 608.064758,280.454224 
	C608.420105,281.348480 608.794922,282.234985 608.864502,283.661438 
	C594.222107,288.190063 579.875977,292.182373 565.351562,295.876282 
	C561.109558,285.404205 557.045959,275.230560 553.215820,264.787140 
	C567.624207,259.680817 581.799011,254.844208 595.973877,250.007629 
z"/>
<path fill="#FFEDED" opacity="1.000000" stroke="none" 
	d="
M401.812103,150.609711 
	C404.255280,149.398331 406.579651,147.749207 409.161407,147.048264 
	C423.459137,143.166443 437.390839,138.504150 449.033783,128.903717 
	C451.918243,126.525307 454.266846,123.497032 456.914917,120.434326 
	C466.127167,124.296814 475.286255,128.492447 484.650635,133.252686 
	C484.620728,134.250931 484.485901,134.802094 484.135742,135.101105 
	C473.023834,144.590027 460.499268,151.600388 446.801849,156.653427 
	C444.014282,157.681793 441.563599,159.623413 438.574158,161.113983 
	C426.064484,157.592545 413.938293,154.101135 401.812103,150.609711 
z"/>
<path fill="#FFC9C9" opacity="1.000000" stroke="none" 
	d="
M554.350952,187.869675 
	C560.946411,195.988480 567.541809,204.107300 573.878845,212.620361 
	C560.947021,217.891998 548.253052,222.717529 535.626587,227.713486 
	C534.079834,228.325485 532.894348,229.850357 531.261230,230.735229 
	C524.042603,222.665115 517.104065,214.811966 510.536804,206.944977 
	C525.389038,200.577301 539.869995,194.223495 554.350952,187.869675 
z"/>
<path fill="#FFD4D4" opacity="1.000000" stroke="none" 
	d="
M554.218750,187.548477 
	C539.869995,194.223495 525.389038,200.577301 510.232300,206.794922 
	C502.319031,200.459183 495.081512,194.259628 488.173431,187.905869 
	C498.479340,183.261398 508.504761,178.875748 518.411560,174.236664 
	C523.348206,171.924942 528.067566,169.149109 532.885193,166.583237 
	C538.400085,172.009811 543.907410,177.444153 549.434937,182.857849 
	C550.954407,184.346039 552.534302,185.772491 554.218750,187.548477 
z"/>
<path fill="#FF7C7C" opacity="1.000000" stroke="none" 
	d="
M575.386230,367.974030 
	C586.707458,365.777802 598.032593,363.601288 609.347717,361.374176 
	C613.068665,360.641785 616.763855,359.778320 620.821899,358.937683 
	C620.817017,368.326263 620.461121,377.752014 619.590881,387.586670 
	C616.961243,388.282471 614.833191,388.496765 612.732788,388.867920 
	C599.434448,391.217987 586.142273,393.602722 572.846252,395.530579 
	C573.691772,386.048096 574.539001,377.011047 575.386230,367.974030 
z"/>
<path fill="#FFDEDE" opacity="1.000000" stroke="none" 
	d="
M532.698364,166.280914 
	C528.067566,169.149109 523.348206,171.924942 518.411560,174.236664 
	C508.504761,178.875748 498.479340,183.261398 487.846039,187.822693 
	C479.028687,182.643402 470.868195,177.393097 463.083496,172.062042 
	C473.097504,167.592819 482.962860,163.630371 492.289368,158.657288 
	C497.953094,155.637268 502.784088,151.055557 507.989166,147.175385 
	C516.163269,153.443130 524.337402,159.710861 532.698364,166.280914 
z"/>
<path fill="#FFB6B6" opacity="1.000000" stroke="none" 
	d="
M126.845360,249.724152 
	C130.979736,241.910309 135.114120,234.096451 139.866867,226.255859 
	C154.700333,231.501938 168.915436,236.774765 183.053223,242.389679 
	C178.578827,250.148560 174.181747,257.565399 169.408813,264.963776 
	C160.207397,262.192047 151.305313,259.657318 142.584457,256.604919 
	C137.195496,254.718750 132.082336,252.044571 126.845360,249.724152 
z"/>
<path fill="#FFE6E6" opacity="1.000000" stroke="none" 
	d="
M507.745911,146.914978 
	C502.784088,151.055557 497.953094,155.637268 492.289368,158.657288 
	C482.962860,163.630371 473.097504,167.592819 462.736908,172.015503 
	C454.328857,168.414490 446.643250,164.779266 438.957611,161.144043 
	C441.563599,159.623413 444.014282,157.681793 446.801849,156.653427 
	C460.499268,151.600388 473.023834,144.590027 484.135742,135.101105 
	C484.485901,134.802094 484.620728,134.250931 484.923828,133.490067 
	C492.495392,137.660080 499.999023,142.157333 507.745911,146.914978 
z"/>
<path fill="#FFEDED" opacity="1.000000" stroke="none" 
	d="
M294.183777,157.585098 
	C292.741882,156.427139 291.474182,154.820892 289.830505,154.182220 
	C276.817596,149.125854 264.050537,143.614899 252.967163,134.918961 
	C250.798645,133.217575 249.081253,130.941162 247.083878,128.611252 
	C254.446777,125.011360 261.881622,121.730171 269.665710,118.390335 
	C271.958435,125.000114 277.770569,127.982430 282.918823,131.372131 
	C294.007324,138.673019 306.438751,142.836487 319.221405,146.094269 
	C321.527222,146.681931 323.656464,147.962219 325.690063,149.418610 
	C315.069855,152.471359 304.626831,155.028229 294.183777,157.585098 
z"/>
<path fill="#FFA1A1" opacity="1.000000" stroke="none" 
	d="
M108.910362,299.981995 
	C111.233192,291.871216 113.556023,283.760468 116.436691,275.322510 
	C118.764847,275.412140 120.567268,275.725372 122.300354,276.262421 
	C134.833496,280.146118 147.352646,284.075073 159.866608,288.365540 
	C157.542007,296.158234 155.226990,303.575134 152.507843,310.990051 
	C146.483917,309.633087 140.847153,308.344330 135.248322,306.907715 
	C126.455559,304.651520 117.688377,302.295654 108.910362,299.981995 
z"/>
<path fill="#FFABAB" opacity="1.000000" stroke="none" 
	d="
M159.876221,287.989716 
	C147.352646,284.075073 134.833496,280.146118 122.300354,276.262421 
	C120.567268,275.725372 118.764847,275.412140 116.607086,274.990417 
	C119.577057,266.712646 122.934486,258.439728 126.568634,249.945465 
	C132.082336,252.044571 137.195496,254.718750 142.584457,256.604919 
	C151.305313,259.657318 160.207397,262.192047 169.354462,265.309357 
	C166.409409,273.112152 163.142807,280.550934 159.876221,287.989716 
z"/>
<path fill="#FF9696" opacity="1.000000" stroke="none" 
	d="
M108.681000,300.276886 
	C117.688377,302.295654 126.455559,304.651520 135.248322,306.907715 
	C140.847153,308.344330 146.483917,309.633087 152.531723,311.394501 
	C151.545761,319.527679 150.131760,327.254517 148.306091,334.983063 
	C144.977997,334.505096 142.020935,334.196625 139.152267,333.515717 
	C127.445618,330.737183 115.765999,327.844788 104.076416,324.994324 
	C105.534813,316.853485 106.993217,308.712616 108.681000,300.276886 
z"/>
<path fill="#FFC1C1" opacity="1.000000" stroke="none" 
	d="
M183.130554,242.047607 
	C168.915436,236.774765 154.700333,231.501938 140.148697,226.074707 
	C144.457687,218.962448 149.103195,212.004578 154.371948,205.020416 
	C165.184021,209.336655 175.385300,213.650375 185.555389,218.036377 
	C189.453918,219.717682 193.281311,221.563965 197.057693,223.654358 
	C192.359711,229.998306 187.745132,236.022964 183.130554,242.047607 
z"/>
<path fill="#FFDEDE" opacity="1.000000" stroke="none" 
	d="
M206.465485,152.990295 
	C217.481827,161.779144 229.797302,167.750748 242.516769,173.019760 
	C245.253021,174.153259 247.899063,175.504578 250.725143,177.222168 
	C244.002029,182.335083 237.140442,186.981384 230.106293,191.275604 
	C228.569183,190.076706 227.271667,189.088242 225.829407,188.405609 
	C214.800613,183.185791 203.697357,178.119980 192.740158,172.755280 
	C190.876694,171.842911 189.602081,169.727829 188.055420,168.168396 
	C194.083176,163.135651 200.110931,158.102905 206.465485,152.990295 
z"/>
<path fill="#FFD4D4" opacity="1.000000" stroke="none" 
	d="
M187.745575,168.283356 
	C189.602081,169.727829 190.876694,171.842911 192.740158,172.755280 
	C203.697357,178.119980 214.800613,183.185791 225.829407,188.405609 
	C227.271667,189.088242 228.569183,190.076706 229.904144,191.515961 
	C223.955734,197.191788 218.036942,202.275192 211.912689,207.057770 
	C209.222443,205.479858 206.776093,204.120468 204.246323,202.939758 
	C192.582611,197.496063 180.895660,192.102142 169.217041,186.690369 
	C175.289932,180.593018 181.362823,174.495651 187.745575,168.283356 
z"/>
<path fill="#FF8B8B" opacity="1.000000" stroke="none" 
	d="
M103.921211,325.371277 
	C115.765999,327.844788 127.445618,330.737183 139.152267,333.515717 
	C142.020935,334.196625 144.977997,334.505096 148.351776,335.405640 
	C148.192093,343.548920 147.575089,351.271393 146.958069,358.993835 
	C132.192429,355.657227 117.426804,352.320587 102.238174,348.966553 
	C102.465454,341.215485 103.115730,333.481842 103.921211,325.371277 
z"/>
<path fill="#FFC9C9" opacity="1.000000" stroke="none" 
	d="
M168.945389,186.839066 
	C180.895660,192.102142 192.582611,197.496063 204.246323,202.939758 
	C206.776093,204.120468 209.222443,205.479858 211.783844,207.353714 
	C206.954010,213.078674 202.047562,218.206863 197.141113,223.335052 
	C193.281311,221.563965 189.453918,219.717682 185.555389,218.036377 
	C175.385300,213.650375 165.184021,209.336655 154.619446,204.824951 
	C159.053711,198.766464 163.863724,192.877106 168.945389,186.839066 
z"/>
<path fill="#F00F0F" opacity="1.000000" stroke="none" 
	d="
M250.002563,543.995117 
	C248.420670,544.329956 246.808929,545.056458 245.261475,544.938721 
	C230.225372,543.794312 215.200806,542.499390 200.171371,541.266479 
	C190.752502,540.493896 181.330933,539.754089 171.453156,539.000244 
	C166.770981,534.196228 162.546219,529.391418 158.591370,524.294006 
	C164.592514,524.668701 170.322052,525.351440 176.055420,526.000244 
	C186.867065,527.223694 197.661850,528.657654 208.500778,529.555969 
	C215.325516,530.121582 222.217728,529.872803 229.416199,530.046387 
	C236.502686,534.733948 243.252625,539.364563 250.002563,543.995117 
z"/>
<path fill="#FFC1C1" opacity="1.000000" stroke="none" 
	d="
M531.541443,230.952179 
	C532.894348,229.850357 534.079834,228.325485 535.626587,227.713486 
	C548.253052,222.717529 560.947021,217.891998 574.007324,212.949341 
	C577.992920,218.583817 581.591553,224.283600 584.952393,230.630524 
	C582.954468,232.191574 581.270447,233.315201 579.421936,233.985458 
	C567.219971,238.409821 554.982605,242.736679 542.481812,246.911743 
	C538.651733,241.469498 535.096619,236.210846 531.541443,230.952179 
z"/>
<path fill="#FF7272" opacity="1.000000" stroke="none" 
	d="
M572.848022,395.976013 
	C586.142273,393.602722 599.434448,391.217987 612.732788,388.867920 
	C614.833191,388.496765 616.961243,388.282471 619.500793,387.993439 
	C619.028320,394.748993 618.131592,401.506714 616.646240,408.630249 
	C604.649963,410.846741 593.264832,412.857147 581.823181,414.465118 
	C577.582153,415.061127 573.208313,414.712524 568.905396,414.394226 
	C570.226501,407.987854 571.537231,401.981934 572.848022,395.976013 
z"/>
<path fill="#FFB6B6" opacity="1.000000" stroke="none" 
	d="
M542.756775,247.095322 
	C554.982605,242.736679 567.219971,238.409821 579.421936,233.985458 
	C581.270447,233.315201 582.954468,232.191574 584.939453,230.986816 
	C588.748962,236.892548 592.333740,243.089127 595.946167,249.646667 
	C581.799011,254.844208 567.624207,259.680817 552.959290,264.555511 
	C549.231750,258.760864 545.994263,252.928101 542.756775,247.095322 
z"/>
<path fill="#FA5454" opacity="1.000000" stroke="none" 
	d="
M608.969971,440.994171 
	C606.963745,446.738312 604.957581,452.482483 602.451477,458.606201 
	C588.747498,460.953949 575.564087,463.081665 562.327698,464.801758 
	C557.852722,465.383301 553.243591,464.932953 548.816223,464.606476 
	C551.668396,458.834473 554.400146,453.410156 557.559448,447.988098 
	C564.363159,447.149048 570.743530,446.338501 577.114441,445.459564 
	C587.736145,443.994110 598.351807,442.484955 608.969971,440.994171 
z"/>
<path fill="#F21C1C" opacity="1.000000" stroke="none" 
	d="
M229.079681,529.989380 
	C222.217728,529.872803 215.325516,530.121582 208.500778,529.555969 
	C197.661850,528.657654 186.867065,527.223694 176.055420,526.000244 
	C170.322052,525.351440 164.592514,524.668701 158.431229,524.000671 
	C154.693558,519.571838 151.385910,515.143616 148.453720,510.364380 
	C152.114059,510.345856 155.404953,510.628082 158.682770,511.019684 
	C171.797791,512.586548 184.893402,514.335144 198.029083,515.699951 
	C202.991348,516.215515 208.042725,515.873230 213.385742,515.997925 
	C218.838562,520.712341 223.959122,525.350830 229.079681,529.989380 
z"/>
<path fill="#F94747" opacity="1.000000" stroke="none" 
	d="
M548.695801,464.954193 
	C553.243591,464.932953 557.852722,465.383301 562.327698,464.801758 
	C575.564087,463.081665 588.747498,460.953949 602.349854,458.967041 
	C600.308167,464.456696 597.868225,469.964996 594.748901,475.732544 
	C581.326660,477.509491 568.600220,479.191010 555.833435,480.469086 
	C550.241028,481.028961 544.566101,480.764709 539.016968,480.546448 
	C542.302124,475.130219 545.498962,470.042206 548.695801,464.954193 
z"/>
<path fill="#FC6060" opacity="1.000000" stroke="none" 
	d="
M609.081299,440.637207 
	C598.351807,442.484955 587.736145,443.994110 577.114441,445.459564 
	C570.743530,446.338501 564.363159,447.149048 557.604614,447.631897 
	C559.471313,441.847473 561.720520,436.421539 564.392639,430.992371 
	C568.246399,430.482147 571.675049,429.958649 575.108704,429.470947 
	C588.027649,427.636078 600.948181,425.812866 613.868164,423.985291 
	C612.309631,429.416931 610.751099,434.848572 609.081299,440.637207 
z"/>
<path fill="#F00F0F" opacity="1.000000" stroke="none" 
	d="
M548.150757,542.697021 
	C531.814697,544.276001 515.650391,545.668152 499.468781,546.816345 
	C490.869659,547.426514 482.242432,547.684937 473.622925,547.917786 
	C472.294312,547.953735 470.938843,546.995850 469.526489,545.998413 
	C474.950439,542.328918 480.443726,539.158508 486.341980,536.054626 
	C498.125458,535.675659 509.525848,535.530457 520.876709,534.704529 
	C533.588318,533.779602 546.255005,532.238342 558.941284,530.965210 
	C555.399292,534.779724 551.857300,538.594238 548.150757,542.697021 
z"/>
<path fill="#FF7272" opacity="1.000000" stroke="none" 
	d="
M102.561539,387.334595 
	C115.386314,389.442749 128.131805,392.006531 140.905075,394.423431 
	C143.590714,394.931580 146.378403,394.900360 149.579453,395.439087 
	C151.165680,401.484131 152.291534,407.207733 152.982956,412.932770 
	C136.681839,409.958130 120.815163,406.982086 104.948494,404.006012 
	C104.129707,398.583313 103.310928,393.160645 102.561539,387.334595 
z"/>
<path fill="#F42828" opacity="1.000000" stroke="none" 
	d="
M213.053482,515.921997 
	C208.042725,515.873230 202.991348,516.215515 198.029083,515.699951 
	C184.893402,514.335144 171.797791,512.586548 158.682770,511.019684 
	C155.404953,510.628082 152.114059,510.345856 148.386169,510.024048 
	C145.074326,505.893097 142.205475,501.751373 139.655029,497.299255 
	C141.966034,497.016266 143.981216,496.859283 145.947723,497.099976 
	C162.351227,499.107574 178.739746,501.239655 195.152710,503.164215 
	C196.711990,503.347046 198.407410,502.369019 200.326080,502.103455 
	C204.759506,506.825348 208.906494,511.373657 213.053482,515.921997 
z"/>
<path fill="#FFA1A1" opacity="1.000000" stroke="none" 
	d="
M565.529846,296.174683 
	C579.875977,292.182373 594.222107,288.190063 608.925659,284.047546 
	C610.921204,289.641815 612.559387,295.386353 613.791016,301.553131 
	C611.913391,302.159485 610.397705,302.176392 608.977905,302.553802 
	C596.027893,305.995941 583.094604,309.500793 570.029480,312.619232 
	C568.444946,306.892273 566.987366,301.533478 565.529846,296.174683 
z"/>
<path fill="#FF9696" opacity="1.000000" stroke="none" 
	d="
M570.156433,312.987366 
	C583.094604,309.500793 596.027893,305.995941 608.977905,302.553802 
	C610.397705,302.176392 611.913391,302.159485 613.818359,301.963135 
	C615.364258,306.971344 616.476318,311.991791 617.624390,317.392731 
	C603.097290,321.511414 588.534180,325.249542 573.472778,328.588684 
	C572.035095,323.122223 571.095764,318.054810 570.156433,312.987366 
z"/>
<path fill="#F94747" opacity="1.000000" stroke="none" 
	d="
M125.932930,472.032593 
	C123.941933,467.616425 121.950935,463.200287 120.396683,458.397675 
	C123.640831,458.198639 126.472191,458.214386 129.251663,458.602112 
	C144.174454,460.683685 159.084335,462.857819 174.256653,465.217804 
	C176.702393,469.246002 178.890137,473.056396 180.877853,477.186584 
	C179.501831,477.941376 178.273148,478.853546 177.158752,478.730499 
	C171.730408,478.131165 166.340317,477.195984 160.922424,476.489166 
	C149.263901,474.968079 137.596619,473.514069 125.932930,472.032593 
z"/>
<path fill="#F63333" opacity="1.000000" stroke="none" 
	d="
M200.039627,501.929932 
	C198.407410,502.369019 196.711990,503.347046 195.152710,503.164215 
	C178.739746,501.239655 162.351227,499.107574 145.947723,497.099976 
	C143.981216,496.859283 141.966034,497.016266 139.529816,496.982117 
	C136.735199,492.900879 134.384171,488.826447 132.405640,484.387421 
	C146.869919,485.853546 160.947052,487.810760 175.061417,489.446777 
	C180.056335,490.025757 185.142044,489.821381 190.459473,490.144714 
	C193.834946,494.186554 196.937286,498.058228 200.039627,501.929932 
z"/>
<path fill="#FE6969" opacity="1.000000" stroke="none" 
	d="
M613.966919,423.604614 
	C600.948181,425.812866 588.027649,427.636078 575.108704,429.470947 
	C571.675049,429.958649 568.246399,430.482147 564.415771,430.603333 
	C565.642395,425.076538 567.268738,419.935608 568.895081,414.794708 
	C573.208313,414.712524 577.582153,415.061127 581.823181,414.465118 
	C593.264832,412.857147 604.649963,410.846741 616.491577,408.994080 
	C615.972290,413.736084 615.018982,418.480011 613.966919,423.604614 
z"/>
<path fill="#F42828" opacity="1.000000" stroke="none" 
	d="
M581.859436,499.963562 
	C579.449158,503.533539 577.038818,507.103546 573.916748,510.848511 
	C567.456604,511.683594 561.712158,512.380493 555.959045,512.996094 
	C543.958740,514.280151 531.967224,515.682617 519.942200,516.674683 
	C516.645508,516.946655 512.706116,518.898865 510.150696,514.686951 
	C513.509766,511.263519 516.705078,508.127472 520.263184,505.142151 
	C529.004883,504.718140 537.395996,504.281036 545.759705,503.535675 
	C557.803467,502.462463 569.827148,501.165192 581.859436,499.963562 
z"/>
<path fill="#FA5454" opacity="1.000000" stroke="none" 
	d="
M173.998672,465.000000 
	C159.084335,462.857819 144.174454,460.683685 129.251663,458.602112 
	C126.472191,458.214386 123.640831,458.198639 120.373024,458.021973 
	C118.231895,453.633484 116.551155,449.234283 115.290573,444.431244 
	C119.820023,444.521606 123.937996,444.953217 128.037018,445.521545 
	C141.001694,447.319000 153.959259,449.167633 167.122528,451.290161 
	C169.549896,456.055878 171.774277,460.527954 173.998672,465.000000 
z"/>
<path fill="#F63333" opacity="1.000000" stroke="none" 
	d="
M581.959473,499.628418 
	C569.827148,501.165192 557.803467,502.462463 545.759705,503.535675 
	C537.395996,504.281036 529.004883,504.718140 520.441284,504.852356 
	C523.822205,500.242676 527.387817,496.073517 531.082336,492.278320 
	C532.870239,493.099762 534.571960,494.046783 536.180664,493.908783 
	C543.419556,493.288025 550.632812,492.366241 557.853821,491.539856 
	C568.192078,490.356750 578.529114,489.162231 588.866638,487.972595 
	C586.597656,491.746155 584.328613,495.519714 581.959473,499.628418 
z"/>
<path fill="#F73D3D" opacity="1.000000" stroke="none" 
	d="
M589.048950,487.673553 
	C578.529114,489.162231 568.192078,490.356750 557.853821,491.539856 
	C550.632812,492.366241 543.419556,493.288025 536.180664,493.908783 
	C534.571960,494.046783 532.870239,493.099762 531.225952,491.975891 
	C533.803223,487.824554 536.365906,484.349609 538.928650,480.874634 
	C544.566101,480.764709 550.241028,481.028961 555.833435,480.469086 
	C568.600220,479.191010 581.326660,477.509491 594.513306,475.986450 
	C593.048462,479.778870 591.139832,483.576691 589.048950,487.673553 
z"/>
<path fill="#F21C1C" opacity="1.000000" stroke="none" 
	d="
M559.116577,530.681885 
	C546.255005,532.238342 533.588318,533.779602 520.876709,534.704529 
	C509.525848,535.530457 498.125458,535.675659 486.438110,535.730225 
	C490.418701,531.890198 494.708099,528.441101 499.214081,525.315369 
	C502.276520,526.067078 505.176117,527.083679 507.959625,526.829285 
	C527.647156,525.030457 547.310974,522.970947 566.982300,520.994629 
	C564.418823,524.129272 561.855347,527.263916 559.116577,530.681885 
z"/>
<path fill="#F73D3D" opacity="1.000000" stroke="none" 
	d="
M190.186310,489.974579 
	C185.142044,489.821381 180.056335,490.025757 175.061417,489.446777 
	C160.947052,487.810760 146.869919,485.853546 132.322449,484.039581 
	C129.928177,480.285095 127.989571,476.513855 125.991943,472.387634 
	C137.596619,473.514069 149.263901,474.968079 160.922424,476.489166 
	C166.340317,477.195984 171.730408,478.131165 177.158752,478.730499 
	C178.273148,478.853546 179.501831,477.941376 181.154175,477.383118 
	C184.482452,481.498108 187.334381,485.736328 190.186310,489.974579 
z"/>
<path fill="#FE6969" opacity="1.000000" stroke="none" 
	d="
M104.922775,404.433716 
	C120.815163,406.982086 136.681839,409.958130 153.163269,413.235596 
	C154.883591,417.687042 155.989120,421.837036 156.660034,425.989868 
	C148.752274,424.809021 141.277328,423.636627 133.806458,422.438812 
	C125.045395,421.034119 116.287880,419.607330 107.528824,418.190125 
	C106.651573,413.747223 105.774315,409.304291 104.922775,404.433716 
z"/>
<path fill="#FB5A5A" opacity="1.000000" stroke="none" 
	d="
M166.919571,450.996460 
	C153.959259,449.167633 141.001694,447.319000 128.037018,445.521545 
	C123.937996,444.953217 119.820023,444.521606 115.250076,444.045349 
	C113.405029,439.684814 112.020630,435.306396 111.015854,430.544434 
	C115.781555,430.996826 120.145683,431.979156 124.557899,432.640778 
	C136.802322,434.476898 149.066742,436.179443 161.542557,438.195862 
	C163.481094,442.636780 165.200333,446.816650 166.919571,450.996460 
z"/>
<path fill="#F32020" opacity="1.000000" stroke="none" 
	d="
M567.236206,520.780518 
	C547.310974,522.970947 527.647156,525.030457 507.959625,526.829285 
	C505.176117,527.083679 502.276520,526.067078 499.383484,525.027954 
	C502.886536,521.269592 506.436768,518.121948 509.987000,514.974243 
	C512.706116,518.898865 516.645508,516.946655 519.942200,516.674683 
	C531.967224,515.682617 543.958740,514.280151 555.959045,512.996094 
	C561.712158,512.380493 567.456604,511.683594 573.636475,511.031799 
	C571.875305,514.215515 569.682678,517.390930 567.236206,520.780518 
z"/>
<path fill="#FC6060" opacity="1.000000" stroke="none" 
	d="
M161.323242,437.934784 
	C149.066742,436.179443 136.802322,434.476898 124.557899,432.640778 
	C120.145683,431.979156 115.781555,430.996826 110.954865,430.141327 
	C109.561653,426.415802 108.609055,422.709839 107.592636,418.596985 
	C116.287880,419.607330 125.045395,421.034119 133.806458,422.438812 
	C141.277328,423.636627 148.752274,424.809021 156.885849,426.263611 
	C158.805267,430.334625 160.064255,434.134705 161.323242,437.934784 
z"/>
<path fill="#FF0000" opacity="1.000000" stroke="none" 
	d="
M161.542542,438.195862 
	C160.064255,434.134705 158.805267,430.334625 157.320465,426.260803 
	C155.989120,421.837036 154.883591,417.687042 153.597717,413.234192 
	C152.291534,407.207733 151.165680,401.484131 149.931427,395.372467 
	C148.922638,383.282288 148.022232,371.580139 147.039948,359.435913 
	C147.575089,351.271393 148.192093,343.548920 148.763428,335.403900 
	C150.131760,327.254517 151.545761,319.527679 152.935883,311.396423 
	C155.226990,303.575134 157.542007,296.158234 159.866608,288.365540 
	C163.142807,280.550934 166.409409,273.112152 169.730331,265.327789 
	C174.181747,257.565399 178.578827,250.148560 183.053238,242.389679 
	C187.745132,236.022964 192.359711,229.998306 197.057693,223.654358 
	C202.047562,218.206863 206.954010,213.078674 211.989304,207.654541 
	C218.036942,202.275192 223.955734,197.191788 230.076691,191.868042 
	C237.140442,186.981384 244.002029,182.335083 251.046722,177.396759 
	C265.350342,170.714157 279.470886,164.323563 293.887604,157.759033 
	C304.626831,155.028229 315.069855,152.471359 325.857727,149.785919 
	C351.167297,145.859619 376.085571,145.827850 401.378418,150.595001 
	C413.938293,154.101135 426.064484,157.592545 438.574158,161.113998 
	C446.643250,164.779266 454.328857,168.414490 462.361084,172.096252 
	C470.868195,177.393097 479.028687,182.643402 487.516602,187.976898 
	C495.081512,194.259628 502.319031,200.459183 509.861053,206.808777 
	C517.104065,214.811966 524.042603,222.665115 531.261230,230.735229 
	C535.096619,236.210846 538.651733,241.469498 542.481812,246.911743 
	C545.994263,252.928101 549.231750,258.760864 552.725769,264.825256 
	C557.045959,275.230560 561.109558,285.404205 565.351562,295.876282 
	C566.987366,301.533478 568.444946,306.892273 570.029480,312.619263 
	C571.095764,318.054810 572.035095,323.122223 573.068848,328.588013 
	C573.856873,341.674133 574.550476,354.361908 575.315186,367.511841 
	C574.539001,377.011047 573.691772,386.048096 572.846252,395.530579 
	C571.537231,401.981934 570.226501,407.987854 568.905396,414.394226 
	C567.268738,419.935608 565.642395,425.076538 563.992920,430.606506 
	C561.720520,436.421539 559.471313,441.847473 557.177002,447.629639 
	C554.400146,453.410156 551.668396,458.834473 548.816223,464.606476 
	C545.498962,470.042206 542.302124,475.130219 539.016968,480.546417 
	C536.365906,484.349609 533.803223,487.824554 531.096924,491.601929 
	C527.387817,496.073517 523.822205,500.242676 520.078552,504.701599 
	C516.705078,508.127472 513.509766,511.263519 510.150696,514.686890 
	C506.436768,518.121948 502.886536,521.269592 499.166931,524.704590 
	C494.708099,528.441101 490.418701,531.890198 486.033142,535.663696 
	C480.443726,539.158508 474.950439,542.328918 469.231018,545.748413 
	C452.144440,555.509888 434.598572,563.523499 415.677765,567.804443 
	C403.595703,570.538147 391.261902,572.289368 378.963989,573.889404 
	C371.591278,574.848633 364.054779,575.154480 356.618561,574.917358 
	C321.013733,573.782104 287.379913,565.281006 256.398071,547.266296 
	C254.530869,546.180542 252.556107,545.279785 250.316986,544.144043 
	C243.252625,539.364563 236.502686,534.733948 229.416199,530.046326 
	C223.959122,525.350830 218.838562,520.712341 213.385742,515.997925 
	C208.906494,511.373657 204.759506,506.825348 200.326080,502.103455 
	C196.937286,498.058228 193.834946,494.186554 190.459473,490.144714 
	C187.334381,485.736328 184.482452,481.498108 181.354187,477.063324 
	C178.890137,473.056396 176.702393,469.246002 174.256653,465.217804 
	C171.774277,460.527954 169.549896,456.055878 167.122528,451.290161 
	C165.200333,446.816650 163.481094,442.636780 161.542542,438.195862 
z"/>
</svg>