<svg width="17" height="16" viewBox="0 0 17 16" fill="none" xmlns="http://www.w3.org/2000/svg">
<g clip-path="url(#clip0_5767_2763)">
<path d="M15.677 7.50727C15.677 11.5044 10.147 14.7232 8.947 15.3792C8.8782 15.4173 8.79844 15.4375 8.717 15.4375C8.63557 15.4375 8.55581 15.4173 8.487 15.3792C7.247 14.7232 1.677 11.4957 1.677 7.50727V2.69666C1.67697 2.59609 1.72195 2.49951 1.80232 2.42758C1.88269 2.35565 1.99205 2.3141 2.107 2.31181C6.447 2.2156 5.457 0.5625 8.677 0.5625C11.897 0.5625 10.907 2.2156 15.207 2.31181C15.322 2.3141 15.4313 2.35565 15.5117 2.42758C15.592 2.49951 15.637 2.59609 15.637 2.69666L15.677 7.50727Z" fill="#1B93EB"/>
<path d="M15.0569 7.5423C15.0569 11.2159 9.98691 14.1634 8.88691 14.7582C8.82379 14.7923 8.75108 14.8103 8.67691 14.8103C8.60274 14.8103 8.53004 14.7923 8.46691 14.7582C7.36691 14.1634 2.29691 11.2159 2.29691 7.5423V3.16902C2.28694 3.1192 2.28913 3.06811 2.30333 3.0191C2.31753 2.97008 2.34343 2.92424 2.37931 2.88459C2.4152 2.84494 2.46026 2.81238 2.51155 2.78905C2.56284 2.76571 2.6192 2.75212 2.67691 2.74918C6.61691 2.65297 5.67691 1.14856 8.67691 1.14856C11.6769 1.14856 10.7269 2.68795 14.6769 2.74918C14.7804 2.75358 14.8782 2.79211 14.9506 2.85702C15.0229 2.92193 15.0645 3.00841 15.0669 3.09904L15.0569 7.5423Z" fill="url(#paint0_linear_5767_2763)"/>
<path d="M8.67889 5.68889C9.29709 5.69126 9.89387 5.92361 10.3603 6.34355C10.8268 6.76349 11.1319 7.34302 11.2199 7.97641C11.2389 8.08182 11.2934 8.17686 11.3736 8.24467C11.4539 8.31248 11.5547 8.34868 11.6583 8.34686H12.9109C12.9724 8.34837 13.0334 8.33649 13.0902 8.31198C13.1469 8.28747 13.198 8.25088 13.2402 8.20459C13.2824 8.15831 13.3147 8.10335 13.335 8.0433C13.3554 7.98325 13.3633 7.91944 13.3583 7.85601C13.2344 6.66085 12.688 5.55528 11.8242 4.75192C10.9604 3.94856 9.84015 3.50415 8.67889 3.50415C7.51763 3.50415 6.39737 3.94856 5.53355 4.75192C4.66974 5.55528 4.12337 6.66085 3.99952 7.85601C3.99448 7.91944 4.00239 7.98325 4.02273 8.0433C4.04306 8.10335 4.07537 8.15831 4.11756 8.20459C4.15975 8.25088 4.21087 8.28747 4.2676 8.31198C4.32434 8.33649 4.38542 8.34837 4.44688 8.34686H5.69948C5.80306 8.34868 5.90392 8.31248 5.98417 8.24467C6.06442 8.17686 6.11888 8.08182 6.13789 7.97641C6.2259 7.34302 6.53096 6.76349 6.99743 6.34355C7.4639 5.92361 8.06068 5.69126 8.67889 5.68889V5.68889Z" fill="#C3F1FF"/>
<path d="M8.67883 10.0234C9.59446 10.0234 10.3367 9.27416 10.3367 8.34995C10.3367 7.42574 9.59446 6.67651 8.67883 6.67651C7.7632 6.67651 7.02094 7.42574 7.02094 8.34995C7.02094 9.27416 7.7632 10.0234 8.67883 10.0234Z" fill="white"/>
</g>
<defs>
<linearGradient id="paint0_linear_5767_2763" x1="8.67691" y1="14.3034" x2="8.67691" y2="0.667499" gradientUnits="userSpaceOnUse">
<stop stop-color="#1B93EB"/>
<stop offset="0.21" stop-color="#2095EB"/>
<stop offset="0.44" stop-color="#2E9CED"/>
<stop offset="0.69" stop-color="#45A7EF"/>
<stop offset="0.95" stop-color="#64B6F1"/>
<stop offset="1" stop-color="#6BB9F2"/>
</linearGradient>
<clipPath id="clip0_5767_2763">
<rect width="16" height="16" fill="white" transform="translate(0.677002)"/>
</clipPath>
</defs>
</svg>
