<?xml version="1.0" encoding="UTF-8"?>
<svg id="TextMine_logo" width="187px" height="40px" data-name="TextMine logo" xmlns="http://www.w3.org/2000/svg" viewBox="0 0 982 210">
  <defs>
    <style>
      .cls-1 {
        fill: #05142d;
      }
    </style>
  </defs>
  <g>
    <path class="cls-1" d="m847.86,74.43h0s-.37,0-.37,0c0,0-16.11-.84-29.69,12.89v-10.76h-21.44v86.39h22.26v-39.5c0-27.05,11.1-32.73,20.43-32.73,10.25,0,15.04,6.65,15.04,20.93v51.31h22.26v-52.87c0-22.5-10.37-35.47-28.48-35.64Z"/>
    <polygon class="cls-1" points="362.75 47.04 255.96 47.04 255.96 66.28 297.7 66.28 297.7 162.94 320.86 162.94 320.86 66.28 362.75 66.28 362.75 47.04"/>
    <path class="cls-1" d="m414.23,135.47h0c-.16.41-.32.85-.47,1.29-5.18,12.81-21.02,16.09-31.43,7.76-5.75-5.12-8.17-13.24-8.61-20.92h62.59c-.42-42.73-26.15-49.13-41.5-49.13-59.25-2.04-58.64,92.39.16,90.59.03,0,.06,0,.09,0,.03,0,.06,0,.09,0,0,0,0,0,.01,0,18.57-.06,32.96-8.91,38.85-23.78.86-1.81,1.57-3.73,2.13-5.8h-21.9Zm-.37-23.65h-39.85c2.46-27.64,35.84-32.81,39.85,0Z"/>
    <path class="cls-1" d="m954.8,135.47h0c-.16.41-.32.85-.47,1.29-5.18,12.81-21.02,16.09-31.43,7.76-5.75-5.12-8.17-13.24-8.61-20.92h62.59c-.42-42.73-26.15-49.13-41.5-49.13-59.25-2.04-58.64,92.39.16,90.59.03,0,.06,0,.09,0,.03,0,.06,0,.09,0,0,0,0,0,.01,0,18.57-.06,32.96-8.91,38.85-23.78.86-1.81,1.57-3.73,2.13-5.8h-21.9Zm-.37-23.65h-39.85c2.46-27.64,35.84-32.81,39.85,0Z"/>
    <polygon class="cls-1" points="488.13 132.6 508.38 162.94 533.83 162.94 501.37 119.94 501.82 119.29 532.97 76.55 507.9 76.55 488.8 106.81 487.89 105.44 468.43 76.55 443.78 76.55 474.29 118.19 473.82 118.84 441.32 162.94 466.22 162.94 487.22 131.24 488.13 132.6"/>
    <rect class="cls-1" x="751.82" y="76.55" width="22.27" height="86.39"/>
    <rect class="cls-1" x="751.82" y="39.43" width="22.27" height="22.27"/>
    <polygon class="cls-1" points="689.93 39.43 666.55 145.43 643.3 39.43 603.71 39.43 603.71 162.94 625.98 162.94 625.98 56.95 651.98 162.94 681.27 162.94 707.27 56.95 707.27 162.94 729.54 162.94 729.54 39.43 689.93 39.43"/>
    <path class="cls-1" d="m588.86,92.27v-15.71h-15.71v-25.97l-22.26,5.96v20.01h-10.53v15.71h10.53v53.14c0,11.31,6.87,17.53,19.32,17.53h18.64v-15.71h-10.53c-4.4,0-5.18-1.83-5.18-5.67v-49.29h15.71Z"/>
  </g>
  <g>
    <path class="cls-1" d="m51.35,31.68l-23.11,13.35,23.11,13.34-23.13,13.35c-14.28,8.24-23.08,23.48-23.09,39.97v53.3s23.11,13.35,23.11,13.35v-62.16c0-10.99,5.86-21.15,15.38-26.65l30.84-17.81,23.11,13.34,23.11-13.34L51.35,31.68Z"/>
    <path class="cls-1" d="m136.04,169.43c-9.5,5.49-21.21,5.5-30.72.02l-30.86-17.75v-26.73l-23.11-13.32v80l23.11,13.35v-26.63l23.16,13.33c14.28,8.22,31.85,8.21,46.12-.03l46.29-26.74v-26.66l-53.98,31.16Z"/>
    <path class="cls-1" d="m166.91,98.35v-.03h0v-26.65c0-16.49-8.8-31.73-23.08-39.97L97.57,5l-23.11,13.34,53.95,31.15c9.52,5.5,15.38,15.65,15.38,26.65v35.54l-23.11,13.32v26.68l69.34-39.98v-26.66l-23.11,13.32Z"/>
  </g>
</svg>
