<?xml version="1.0" encoding="UTF-8"?>
<svg id="TextMine_logo" width="200" height="200" data-name="TextMine logo" xmlns="http://www.w3.org/2000/svg" viewBox="-12.42 -5 220 220">
  <defs>
    <style>
      .cls-1 {
        fill: #05142d;
      }
    </style>
  </defs>
  <g>
    <path class="cls-1" d="m51.35,31.68l-23.11,13.35,23.11,13.34-23.13,13.35c-14.28,8.24-23.08,23.48-23.09,39.97v53.3s23.11,13.35,23.11,13.35v-62.16c0-10.99,5.86-21.15,15.38-26.65l30.84-17.81,23.11,13.34,23.11-13.34L51.35,31.68Z"/>
    <path class="cls-1" d="m136.04,169.43c-9.5,5.49-21.21,5.5-30.72.02l-30.86-17.75v-26.73l-23.11-13.32v80l23.11,13.35v-26.63l23.16,13.33c14.28,8.22,31.85,8.21,46.12-.03l46.29-26.74v-26.66l-53.98,31.16Z"/>
    <path class="cls-1" d="m166.91,98.35v-.03h0v-26.65c0-16.49-8.8-31.73-23.08-39.97L97.57,5l-23.11,13.34,53.95,31.15c9.52,5.5,15.38,15.65,15.38,26.65v35.54l-23.11,13.32v26.68l69.34-39.98v-26.66l-23.11,13.32Z"/>
  </g>
</svg>
