<?xml version="1.0" encoding="UTF-8"?>
<svg version="1.1" xmlns="http://www.w3.org/2000/svg" width="318" height="319">
<path d="M0 0 C36.3 0 72.6 0 110 0 C110.66121901 6.61219009 111.15823357 12.93558512 111.16796875 19.5390625 C111.17206757 20.41553436 111.17616638 21.29200623 111.1803894 22.19503784 C111.18986584 25.00506609 111.18992948 27.81495823 111.1875 30.625 C111.18789276 31.58043701 111.18828552 32.53587402 111.18869019 33.52026367 C111.17045278 70.48864165 111.17045278 70.48864165 108 80 C73.02 80 38.04 80 2 80 C-4.3566765 67.28664701 -1.19345159 45.17686071 -1.1875 31.125 C-1.18831573 30.21153809 -1.18913147 29.29807617 -1.18997192 28.35693359 C-1.18970354 25.69881706 -1.18078448 23.04089585 -1.16796875 20.3828125 C-1.16677032 19.60011993 -1.1655719 18.81742737 -1.16433716 18.01101685 C-1.11386061 11.91498461 -0.55738508 6.13123584 0 0 Z " fill="#195B9A" transform="translate(104,127)"/>
<path d="M0 0 C19.99686051 11.5304478 29.22355665 39.53425939 35.11572266 60.48339844 C36.63874923 66.1899971 38.00535148 71.92796352 39.3125 77.6875 C39.56346436 78.78900391 39.81442871 79.89050781 40.07299805 81.02539062 C40.30414307 82.09208984 40.53528809 83.15878906 40.7734375 84.2578125 C40.97501465 85.18609863 41.1765918 86.11438477 41.38427734 87.07080078 C42.19641402 92.19665195 42.50651143 97.39063718 42.9375 102.5625 C8.6175 102.5625 -25.7025 102.5625 -61.0625 102.5625 C-58.08152124 69.77173362 -48.9464061 27.58370189 -23.83203125 4 C-16.78963226 -1.72097754 -8.585644 -3.70394582 0 0 Z " fill="#0A6CBC" transform="translate(168.0625,1.4375)"/>
<path d="M0 0 C25.74 0 51.48 0 78 0 C80.98561853 10.44966484 81.2752944 20.3064046 81.3125 31.125 C81.31692612 32.25384109 81.31692612 32.25384109 81.32144165 33.40548706 C81.33598347 49.74463181 79.19437365 64.41687905 74 80 C49.25 80 24.5 80 -1 80 C-1 74.23210595 -0.99760524 68.89585629 -0.50610352 63.22607422 C0.02678371 56.2657011 0.12904017 49.36091493 0.09765625 42.3828125 C0.09664917 41.29605225 0.09564209 40.20929199 0.09460449 39.08959961 C0.08944528 35.10138872 0.07548524 31.11319309 0.0625 27.125 C0.041875 18.17375 0.02125 9.2225 0 0 Z " fill="#254E80" transform="translate(237,127)"/>
<path d="M0 0 C25.74 0 51.48 0 78 0 C77.9375 27.125 77.9375 27.125 77.90991211 35.59814453 C77.90698653 37.85970004 77.90443949 40.12125607 77.90234375 42.3828125 C77.89722778 43.52032959 77.89211182 44.65784668 77.88684082 45.82983398 C77.88610533 52.73905325 78.18791231 59.5555381 78.78468323 66.43966675 C79.05757994 70.95210321 79 75.47931914 79 80 C54.25 80 29.5 80 4 80 C-1.14698288 63.27230565 -3.27801059 48.99256034 -3.3125 31.6875 C-3.31608521 30.9605191 -3.31967041 30.23353821 -3.32336426 29.48452759 C-3.38356738 6.76713476 -3.38356738 6.76713476 0 0 Z " fill="#086FC2" transform="translate(3,127)"/>
<path d="M0 0 C32.67 0 65.34 0 99 0 C93.15388925 26.89210946 93.15388925 26.89210946 90.25 35.25 C89.91419922 36.23250732 89.57839844 37.21501465 89.23242188 38.22729492 C83.14728214 55.54837062 74.92478103 76.77750614 58.1875 86.4375 C52.86964006 88.81356508 47.49199147 88.98191939 41.90234375 87.41015625 C25.64981751 80.39862903 17.27676755 60.36550435 11 45 C7.17531366 34.71828925 4.14270571 24.15793513 1.5625 13.5 C1.39838623 12.82437012 1.23427246 12.14874023 1.06518555 11.45263672 C0.14950741 7.41996355 0 4.24285857 0 0 Z " fill="#235085" transform="translate(110,230)"/>
<path d="M0 0 C25.27564768 6.06421489 47.04751499 20.7361603 66 38 C67.11955078 39.01126953 67.11955078 39.01126953 68.26171875 40.04296875 C83.87348172 54.89472703 96.39686581 74.93012042 104 95 C104 95.99 104 96.98 104 98 C94.49925675 98.02312484 84.99852312 98.0409158 75.49775791 98.05181217 C71.08662996 98.05704069 66.6755212 98.06413777 62.2644043 98.07543945 C58.01098885 98.08626944 53.75759191 98.09227707 49.50416374 98.09487724 C47.87778367 98.09673129 46.25140466 98.10035152 44.62503242 98.10573006 C42.35489807 98.11294198 40.08484115 98.11399088 37.81469727 98.11352539 C35.87277245 98.11685631 35.87277245 98.11685631 33.89161682 98.12025452 C31 98 31 98 30 97 C29.70253215 95.51850084 29.45893226 94.02612124 29.23828125 92.53125 C29.09229492 91.58048584 28.94630859 90.62972168 28.79589844 89.65014648 C28.63637695 88.61059814 28.47685547 87.5710498 28.3125 86.5 C23.71027539 58.01786502 16.45329643 30.22623688 1.765625 5.1875 C0 2 0 2 0 0 Z " fill="#1263AB" transform="translate(204,6)"/>
<path d="M0 0 C-1.50752529 4.08097756 -3.48596167 7.71620312 -5.625 11.5 C-18.18278197 34.56878983 -23.83911512 60.30389376 -28.40917969 85.94067383 C-29.1887914 89.97758062 -30.10809099 93.98640944 -31 98 C-55.09 98 -79.18 98 -104 98 C-99.77813828 76.89069142 -84.26028176 57.49588757 -70 42 C-68.99066406 40.88431641 -68.99066406 40.88431641 -67.9609375 39.74609375 C-53.43691371 24.4495155 -22.25230283 0 0 0 Z " fill="#0176D1" transform="translate(114,6)"/>
<path d="M0 0 C22.77 0 45.54 0 69 0 C70.98 8.91 72.96 17.82 75 27 C76.5335221 32.31444728 78.07077365 37.4796628 79.875 42.6875 C80.19032684 43.6166069 80.19032684 43.6166069 80.51202393 44.56448364 C84.12829678 55.20516041 88.29211964 65.27019644 94.14941406 74.88720703 C95.15389496 76.56005076 96.08328452 78.27749579 97 80 C96.67 80.66 96.34 81.32 96 82 C55.69842204 68.37057498 21.51948963 42.72404305 1.25 4.71875 C0 2 0 2 0 0 Z " fill="#1262A9" transform="translate(17,230)"/>
<path d="M0 0 C22.77 0 45.54 0 69 0 C66.7450133 6.76496011 66.7450133 6.76496011 64.93359375 9.69921875 C64.53519287 10.34552246 64.13679199 10.99182617 63.72631836 11.65771484 C63.08835327 12.6624585 63.08835327 12.6624585 62.4375 13.6875 C61.7714978 14.74251709 61.7714978 14.74251709 61.09204102 15.81884766 C57.16367131 21.93523198 52.79843059 27.53795666 48 33 C47.29359375 33.82757813 46.5871875 34.65515625 45.859375 35.5078125 C27.25487776 56.85613848 1.50368589 74.45512923 -26 82 C-26.66 82 -27.32 82 -28 82 C-26.49247471 77.91902244 -24.51403833 74.28379688 -22.375 70.5 C-10.41932218 48.53728242 -5.10934838 24.2694048 0 0 Z " fill="#2D446D" transform="translate(232,230)"/>
</svg>
